<svg height="511pt" viewBox="-8 1 511 511.99938" width="511pt" xmlns="http://www.w3.org/2000/svg"><path d="m445.984375 512h-395.398437c-27.617188 0-50.085938-22.46875-50.085938-50.089844v-172.5625c0-27.617187 22.46875-50.085937 50.085938-50.085937h395.398437c27.621094 0 50.089844 22.46875 50.089844 50.085937v172.5625c0 27.621094-22.46875 50.089844-50.089844 50.089844zm0 0" fill="#cc0702"/><path d="m50.585938 239.261719c-27.617188 0-50.085938 22.46875-50.085938 50.085937v172.5625c0 27.621094 22.46875 50.089844 50.085938 50.089844h197.699218v-272.738281zm0 0" fill="#ff2a00"/><g fill="#6cf"><path d="m248.324219 144.113281c-7.679688 0-15.359375-2.917969-21.207031-8.753906-5.667969-5.660156-8.792969-13.1875-8.792969-21.191406 0-8.007813 3.125-15.535157 8.792969-21.191407 11.695312-11.671874 30.71875-11.671874 42.414062 0 5.671875 5.660157 8.792969 13.183594 8.792969 21.191407 0 8.003906-3.121094 15.53125-8.792969 21.191406-5.84375 5.835937-13.527344 8.753906-21.207031 8.753906zm0 0"/><path d="m313.753906 184.167969c-3.84375 0-7.6875-1.46875-10.617187-4.40625-5.851563-5.863281-5.84375-15.359375.023437-21.210938 11.878906-11.859375 18.421875-27.621093 18.421875-44.382812 0-16.765625-6.542969-32.527344-18.421875-44.382813-5.863281-5.855468-5.875-15.351562-.023437-21.214844 5.851562-5.863281 15.351562-5.875 21.214843-.019531 17.558594 17.523438 27.230469 40.828125 27.230469 65.617188 0 24.789062-9.671875 48.089843-27.230469 65.617187-2.929687 2.921875-6.761718 4.382813-10.597656 4.382813zm0 0"/><path d="m347.683594 228.332031c-3.84375 0-7.6875-1.46875-10.617188-4.40625-5.851562-5.863281-5.84375-15.359375.019532-21.210937 23.699218-23.65625 36.753906-55.101563 36.753906-88.546875 0-33.449219-13.054688-64.898438-36.753906-88.550781-5.859376-5.851563-5.871094-15.351563-.019532-21.210938 5.851563-5.867188 15.347656-5.875 21.214844-.023438 29.378906 29.324219 45.558594 68.3125 45.558594 109.78125 0 41.472657-16.179688 80.460938-45.558594 109.78125-2.929688 2.925782-6.761719 4.386719-10.597656 4.386719zm0 0"/></g><path d="m182.820312 184.164062c-3.835937 0-7.667968-1.457031-10.597656-4.382812-17.558594-17.523438-27.230468-40.828125-27.230468-65.617188 0-24.785156 9.671874-48.089843 27.230468-65.617187 5.863282-5.851563 15.359375-5.84375 21.214844.023437 5.851562 5.863282 5.839844 15.359376-.023438 21.210938-11.878906 11.859375-18.421874 27.621094-18.421874 44.382812 0 16.765626 6.542968 32.527344 18.421874 44.386719 5.863282 5.851563 5.875 15.347657.023438 21.210938-2.929688 2.9375-6.773438 4.402343-10.617188 4.402343zm0 0" fill="#b2e5ff"/><path d="m148.890625 228.332031c-3.835937 0-7.667969-1.460937-10.597656-4.382812-29.378907-29.324219-45.558594-68.3125-45.558594-109.785157 0-41.46875 16.179687-80.457031 45.558594-109.78125 5.863281-5.851562 15.359375-5.84375 21.210937.023438 5.855469 5.859375 5.84375 15.359375-.019531 21.210938-23.699219 23.652343-36.75 55.101562-36.75 88.550781 0 33.445312 13.050781 64.894531 36.75 88.546875 5.867187 5.851562 5.875 15.351562.023437 21.214844-2.929687 2.933593-6.773437 4.402343-10.617187 4.402343zm0 0" fill="#b2e5ff"/><path d="m130.890625 421.976562h-40.265625v-107.691406c0-8.285156-6.71875-15-15-15-8.285156 0-15 6.714844-15 15v122.691406c0 8.285157 6.714844 15 15 15h55.265625c8.28125 0 15-6.714843 15-15 0-8.28125-6.71875-15-15-15zm0 0" fill="#fd3"/><path d="m177.359375 299.285156c-8.28125 0-15 6.714844-15 15v122.691406c0 8.285157 6.71875 15 15 15 8.285156 0 15-6.714843 15-15v-122.691406c0-8.285156-6.714844-15-15-15zm0 0" fill="#fd3"/><path d="m281.523438 441.3125 37.042968-122.691406c2.394532-7.933594-2.09375-16.300782-10.023437-18.695313-7.929688-2.398437-16.300781 2.09375-18.695313 10.023438l-22.679687 75.128906-22.683594-75.128906c-2.394531-7.933594-10.769531-12.417969-18.695313-10.023438-7.929687 2.394531-12.417968 10.761719-10.023437 18.695313l37.042969 122.691406c4.144531 11.894531 24.726562 12.8125 28.714844 0zm0 0" fill="#fa0"/><path d="m418.929688 421.976562h-50.648438v-39.070312h42.566406c8.285156 0 15-6.71875 15-15 0-8.285156-6.714844-15-15-15h-42.566406v-23.621094h52.667969c8.285156 0 15-6.71875 15-15 0-8.285156-6.714844-15-15-15h-67.667969c-8.285156 0-15 6.714844-15 15v122.691406c0 8.285157 6.714844 15 15 15h65.648438c8.28125 0 15-6.714843 15-15 0-8.28125-6.714844-15-15-15zm0 0" fill="#fa0"/><path d="m227.121094 92.972656c-5.671875 5.660156-8.796875 13.1875-8.796875 21.195313 0 8.003906 3.125 15.53125 8.796875 21.191406 5.835937 5.824219 13.5 8.742187 21.167968 8.75v-59.886719c-7.667968.007813-15.332031 2.925782-21.167968 8.75zm0 0" fill="#b2e5ff"/><path d="m244.484375 309.949219c-2.394531-7.933594-10.769531-12.417969-18.695313-10.023438-7.929687 2.394531-12.417968 10.761719-10.023437 18.695313l32.519531 107.722656v-103.796875zm0 0" fill="#fd3"/></svg>